<mxfile host="app.diagrams.net" modified="2024-03-11T15:54:08.360Z" agent="Mozilla/5.0 (Windows NT 10.0; Win64; x64) AppleWebKit/537.36 (KHTML, like Gecko) Chrome/121.0.0.0 Safari/537.36 OPR/107.0.0.0" etag="CE06wSz5RQVcrvaztd4O" version="24.0.2" type="device">
  <diagram id="C5RBs43oDa-KdzZeNtuy" name="Page-1">
    <mxGraphModel dx="1393" dy="804" grid="1" gridSize="10" guides="1" tooltips="1" connect="1" arrows="1" fold="1" page="1" pageScale="1" pageWidth="827" pageHeight="1169" math="0" shadow="0">
      <root>
        <mxCell id="WIyWlLk6GJQsqaUBKTNV-0" />
        <mxCell id="WIyWlLk6GJQsqaUBKTNV-1" parent="WIyWlLk6GJQsqaUBKTNV-0" />
        <mxCell id="mAPESz-cA_eIBSOo1YJr-8" style="edgeStyle=orthogonalEdgeStyle;rounded=0;orthogonalLoop=1;jettySize=auto;html=1;exitX=0.5;exitY=1;exitDx=0;exitDy=0;entryX=0.5;entryY=0;entryDx=0;entryDy=0;" edge="1" parent="WIyWlLk6GJQsqaUBKTNV-1" source="mAPESz-cA_eIBSOo1YJr-0" target="mAPESz-cA_eIBSOo1YJr-6">
          <mxGeometry relative="1" as="geometry" />
        </mxCell>
        <mxCell id="mAPESz-cA_eIBSOo1YJr-0" value="Start" style="rounded=0;whiteSpace=wrap;html=1;" vertex="1" parent="WIyWlLk6GJQsqaUBKTNV-1">
          <mxGeometry x="330" y="130" width="120" height="60" as="geometry" />
        </mxCell>
        <mxCell id="mAPESz-cA_eIBSOo1YJr-11" style="edgeStyle=orthogonalEdgeStyle;rounded=0;orthogonalLoop=1;jettySize=auto;html=1;exitX=0.5;exitY=1;exitDx=0;exitDy=0;entryX=0.5;entryY=0;entryDx=0;entryDy=0;" edge="1" parent="WIyWlLk6GJQsqaUBKTNV-1" source="mAPESz-cA_eIBSOo1YJr-6" target="mAPESz-cA_eIBSOo1YJr-9">
          <mxGeometry relative="1" as="geometry" />
        </mxCell>
        <mxCell id="mAPESz-cA_eIBSOo1YJr-6" value="&lt;h2 style=&quot;&quot;&gt;array = [&quot;lan&quot;, &quot;van&quot;, &quot;ban&quot;, &quot;pampam&quot;, &quot;dadam&quot;]&lt;/h2&gt;&lt;h2 style=&quot;&quot;&gt;words = []&lt;/h2&gt;&lt;div style=&quot;&quot;&gt;&lt;br&gt;&lt;/div&gt;" style="rounded=1;whiteSpace=wrap;html=1;align=left;" vertex="1" parent="WIyWlLk6GJQsqaUBKTNV-1">
          <mxGeometry x="295" y="230" width="190" height="130" as="geometry" />
        </mxCell>
        <mxCell id="mAPESz-cA_eIBSOo1YJr-26" style="edgeStyle=orthogonalEdgeStyle;rounded=0;orthogonalLoop=1;jettySize=auto;html=1;exitX=0.5;exitY=1;exitDx=0;exitDy=0;entryX=0.5;entryY=0;entryDx=0;entryDy=0;" edge="1" parent="WIyWlLk6GJQsqaUBKTNV-1" source="mAPESz-cA_eIBSOo1YJr-9" target="mAPESz-cA_eIBSOo1YJr-25">
          <mxGeometry relative="1" as="geometry" />
        </mxCell>
        <mxCell id="mAPESz-cA_eIBSOo1YJr-9" value="for&amp;nbsp;" style="rounded=1;whiteSpace=wrap;html=1;" vertex="1" parent="WIyWlLk6GJQsqaUBKTNV-1">
          <mxGeometry x="365" y="400" width="50" height="20" as="geometry" />
        </mxCell>
        <mxCell id="mAPESz-cA_eIBSOo1YJr-30" style="edgeStyle=orthogonalEdgeStyle;rounded=0;orthogonalLoop=1;jettySize=auto;html=1;exitX=0.5;exitY=1;exitDx=0;exitDy=0;entryX=0.5;entryY=0;entryDx=0;entryDy=0;" edge="1" parent="WIyWlLk6GJQsqaUBKTNV-1" source="mAPESz-cA_eIBSOo1YJr-10" target="mAPESz-cA_eIBSOo1YJr-23">
          <mxGeometry relative="1" as="geometry" />
        </mxCell>
        <mxCell id="mAPESz-cA_eIBSOo1YJr-34" value="&lt;h3&gt;Yes&lt;/h3&gt;" style="edgeLabel;html=1;align=center;verticalAlign=middle;resizable=0;points=[];" vertex="1" connectable="0" parent="mAPESz-cA_eIBSOo1YJr-30">
          <mxGeometry x="-0.2" relative="1" as="geometry">
            <mxPoint as="offset" />
          </mxGeometry>
        </mxCell>
        <mxCell id="mAPESz-cA_eIBSOo1YJr-32" style="edgeStyle=orthogonalEdgeStyle;rounded=0;orthogonalLoop=1;jettySize=auto;html=1;exitX=0;exitY=0.5;exitDx=0;exitDy=0;entryX=0;entryY=0.75;entryDx=0;entryDy=0;" edge="1" parent="WIyWlLk6GJQsqaUBKTNV-1" source="mAPESz-cA_eIBSOo1YJr-10" target="mAPESz-cA_eIBSOo1YJr-9">
          <mxGeometry relative="1" as="geometry">
            <Array as="points">
              <mxPoint x="280" y="530" />
              <mxPoint x="280" y="415" />
            </Array>
          </mxGeometry>
        </mxCell>
        <mxCell id="mAPESz-cA_eIBSOo1YJr-33" value="&lt;h3&gt;No&lt;/h3&gt;" style="edgeLabel;html=1;align=center;verticalAlign=middle;resizable=0;points=[];" vertex="1" connectable="0" parent="mAPESz-cA_eIBSOo1YJr-32">
          <mxGeometry x="-0.12" y="-5" relative="1" as="geometry">
            <mxPoint as="offset" />
          </mxGeometry>
        </mxCell>
        <mxCell id="mAPESz-cA_eIBSOo1YJr-10" value="array[i] &amp;lt;= 3" style="rounded=0;whiteSpace=wrap;html=1;" vertex="1" parent="WIyWlLk6GJQsqaUBKTNV-1">
          <mxGeometry x="330" y="500" width="120" height="60" as="geometry" />
        </mxCell>
        <mxCell id="mAPESz-cA_eIBSOo1YJr-38" style="edgeStyle=orthogonalEdgeStyle;rounded=0;orthogonalLoop=1;jettySize=auto;html=1;exitX=0.5;exitY=1;exitDx=0;exitDy=0;entryX=0.5;entryY=0;entryDx=0;entryDy=0;" edge="1" parent="WIyWlLk6GJQsqaUBKTNV-1" source="mAPESz-cA_eIBSOo1YJr-23" target="mAPESz-cA_eIBSOo1YJr-24">
          <mxGeometry relative="1" as="geometry" />
        </mxCell>
        <mxCell id="mAPESz-cA_eIBSOo1YJr-23" value="words[i] = array[i]" style="rounded=0;whiteSpace=wrap;html=1;" vertex="1" parent="WIyWlLk6GJQsqaUBKTNV-1">
          <mxGeometry x="340" y="620" width="100" height="30" as="geometry" />
        </mxCell>
        <mxCell id="mAPESz-cA_eIBSOo1YJr-35" value="" style="edgeStyle=orthogonalEdgeStyle;rounded=0;orthogonalLoop=1;jettySize=auto;html=1;" edge="1" parent="WIyWlLk6GJQsqaUBKTNV-1" source="mAPESz-cA_eIBSOo1YJr-24" target="mAPESz-cA_eIBSOo1YJr-29">
          <mxGeometry relative="1" as="geometry" />
        </mxCell>
        <mxCell id="mAPESz-cA_eIBSOo1YJr-36" value="Yes" style="edgeLabel;html=1;align=center;verticalAlign=middle;resizable=0;points=[];" vertex="1" connectable="0" parent="mAPESz-cA_eIBSOo1YJr-35">
          <mxGeometry x="0.1111" y="3" relative="1" as="geometry">
            <mxPoint as="offset" />
          </mxGeometry>
        </mxCell>
        <mxCell id="mAPESz-cA_eIBSOo1YJr-40" value="" style="edgeStyle=orthogonalEdgeStyle;rounded=0;orthogonalLoop=1;jettySize=auto;html=1;" edge="1" parent="WIyWlLk6GJQsqaUBKTNV-1" source="mAPESz-cA_eIBSOo1YJr-24" target="mAPESz-cA_eIBSOo1YJr-39">
          <mxGeometry relative="1" as="geometry" />
        </mxCell>
        <mxCell id="mAPESz-cA_eIBSOo1YJr-43" value="&lt;h3&gt;No&lt;/h3&gt;" style="edgeLabel;html=1;align=center;verticalAlign=middle;resizable=0;points=[];" vertex="1" connectable="0" parent="mAPESz-cA_eIBSOo1YJr-40">
          <mxGeometry x="-0.2421" relative="1" as="geometry">
            <mxPoint as="offset" />
          </mxGeometry>
        </mxCell>
        <mxCell id="mAPESz-cA_eIBSOo1YJr-24" value="i &amp;lt; array.Length" style="rounded=0;whiteSpace=wrap;html=1;" vertex="1" parent="WIyWlLk6GJQsqaUBKTNV-1">
          <mxGeometry x="345" y="680" width="90" height="30" as="geometry" />
        </mxCell>
        <mxCell id="mAPESz-cA_eIBSOo1YJr-28" style="edgeStyle=orthogonalEdgeStyle;rounded=0;orthogonalLoop=1;jettySize=auto;html=1;exitX=0.5;exitY=1;exitDx=0;exitDy=0;entryX=0.5;entryY=0;entryDx=0;entryDy=0;" edge="1" parent="WIyWlLk6GJQsqaUBKTNV-1" source="mAPESz-cA_eIBSOo1YJr-25" target="mAPESz-cA_eIBSOo1YJr-10">
          <mxGeometry relative="1" as="geometry" />
        </mxCell>
        <mxCell id="mAPESz-cA_eIBSOo1YJr-25" value="i = 0" style="rounded=0;whiteSpace=wrap;html=1;" vertex="1" parent="WIyWlLk6GJQsqaUBKTNV-1">
          <mxGeometry x="355" y="440" width="70" height="30" as="geometry" />
        </mxCell>
        <mxCell id="mAPESz-cA_eIBSOo1YJr-37" style="edgeStyle=orthogonalEdgeStyle;rounded=0;orthogonalLoop=1;jettySize=auto;html=1;exitX=0.5;exitY=0;exitDx=0;exitDy=0;entryX=0;entryY=0.75;entryDx=0;entryDy=0;" edge="1" parent="WIyWlLk6GJQsqaUBKTNV-1" source="mAPESz-cA_eIBSOo1YJr-29" target="mAPESz-cA_eIBSOo1YJr-9">
          <mxGeometry relative="1" as="geometry" />
        </mxCell>
        <mxCell id="mAPESz-cA_eIBSOo1YJr-29" value="i++" style="rounded=0;whiteSpace=wrap;html=1;" vertex="1" parent="WIyWlLk6GJQsqaUBKTNV-1">
          <mxGeometry x="250" y="685" width="60" height="20" as="geometry" />
        </mxCell>
        <mxCell id="mAPESz-cA_eIBSOo1YJr-42" value="" style="edgeStyle=orthogonalEdgeStyle;rounded=0;orthogonalLoop=1;jettySize=auto;html=1;" edge="1" parent="WIyWlLk6GJQsqaUBKTNV-1" source="mAPESz-cA_eIBSOo1YJr-39" target="mAPESz-cA_eIBSOo1YJr-41">
          <mxGeometry relative="1" as="geometry" />
        </mxCell>
        <mxCell id="mAPESz-cA_eIBSOo1YJr-39" value="print[array]&lt;div&gt;print[words]&lt;/div&gt;" style="shape=parallelogram;perimeter=parallelogramPerimeter;whiteSpace=wrap;html=1;fixedSize=1;" vertex="1" parent="WIyWlLk6GJQsqaUBKTNV-1">
          <mxGeometry x="520" y="665" width="120" height="60" as="geometry" />
        </mxCell>
        <mxCell id="mAPESz-cA_eIBSOo1YJr-41" value="Finish" style="ellipse;whiteSpace=wrap;html=1;" vertex="1" parent="WIyWlLk6GJQsqaUBKTNV-1">
          <mxGeometry x="680" y="655" width="120" height="80" as="geometry" />
        </mxCell>
      </root>
    </mxGraphModel>
  </diagram>
</mxfile>
